<svg width="34" height="37" viewBox="0 0 34 37" fill="none" xmlns="http://www.w3.org/2000/svg">
<path fill-rule="evenodd" clip-rule="evenodd" d="M3.364 29.9511H7.68402C9.93529 30.0424 10.2852 29.4339 10.2091 27.137V19.8812C10.1635 18.5882 10.9545 18.1775 12.1409 18.2536L18.7731 18.2384C19.777 18.2232 20.0965 17.9037 20.0965 16.9302V13.2643C20.1421 12.3059 19.777 12.0474 18.7731 12.0017H11.4108C10.6046 11.9561 10.346 11.6823 10.2243 10.7544L10.2395 7.16452C10.2699 6.26705 10.6806 5.74987 11.6238 5.61296H21.7545C22.8953 5.55212 23.23 5.17184 23.306 3.97014V2.60112C23.23 1.64281 22.8801 1.20168 21.8001 1.11041H3.16625C1.76681 1.20168 1.05188 1.93182 1.09751 3.36169V27.6085C1.20399 29.2818 1.67555 29.9815 3.364 29.9511Z" fill="#201600"/>
<path d="M3.16624 1.11043H21.8153C22.8953 1.20169 23.2452 1.64282 23.3212 2.60114V3.97016C23.2452 5.17185 22.9105 5.55213 21.7697 5.61298H11.639C10.6958 5.74988 10.2851 6.26707 10.2547 7.16453L10.2395 10.7544C10.346 11.6823 10.6198 11.9561 11.426 12.0017H18.7883C19.7922 12.0474 20.1573 12.306 20.1117 13.2643V16.9302C20.0964 17.9189 19.777 18.2232 18.7883 18.2384L12.1561 18.2536C12.0649 18.2536 11.9584 18.2384 11.8671 18.2384C10.848 18.2384 10.1787 18.6795 10.2243 19.866V27.1218C10.3004 29.2818 9.99613 29.9511 8.0795 29.9511C7.95781 29.9511 7.82091 29.9511 7.69922 29.9359H3.36399C3.33357 29.9359 3.30314 29.9359 3.27272 29.9359C1.67553 29.9359 1.20398 29.221 1.0975 27.5781V3.34649C1.05187 1.93184 1.78201 1.20169 3.16624 1.11043ZM3.16624 0H3.13582H3.1054C1.0975 0.136902 -0.0585579 1.39944 0.00228744 3.3617V27.5933V27.6238V27.6542C0.0935554 29.1145 0.519472 31.0463 3.27272 31.0463H3.39441H7.66879C7.8057 31.0463 7.9426 31.0615 8.0795 31.0615C8.8857 31.0615 9.88965 30.9703 10.5742 30.2553C11.3347 29.4643 11.3651 28.2779 11.3195 27.1066V19.866V19.8508C11.3043 19.577 11.3651 19.4705 11.3804 19.4553C11.3956 19.4249 11.5477 19.364 11.8671 19.364C11.928 19.364 12.004 19.364 12.0801 19.3792H12.1257H12.1713L18.8035 19.364C20.4007 19.3488 21.2221 18.5426 21.2373 16.9606V13.3099C21.2525 13.0057 21.2677 12.2147 20.7201 11.6062C20.2029 11.0434 19.4424 10.9369 18.8491 10.9217H18.8339H18.8187H11.502C11.4716 10.9217 11.4412 10.9217 11.426 10.9065C11.4108 10.8609 11.3956 10.7848 11.3956 10.6936L11.4108 7.17974C11.426 6.82988 11.4564 6.75383 11.7759 6.70819H21.8305H21.861H21.8914C23.5646 6.61693 24.3708 5.79552 24.4925 4.031V4.00058V3.97016V2.60114V2.5555V2.50987C24.3708 0.958313 23.5494 0.136902 21.9827 0H21.937H21.8914H3.16624Z" fill="white"/>
<path fill-rule="evenodd" clip-rule="evenodd" d="M12.3386 6.79942H23.8992C33.239 7.31661 34.821 20.444 25.4204 22.9386C25.1466 23.1212 25.2226 23.3493 25.4204 23.5775L31.7635 29.7229C32.5241 30.4987 32.5697 31.8373 31.6722 32.4914L28.9646 34.7731C27.839 35.3815 26.8807 35.3511 26.044 34.408L15.8829 24.0947C15.5482 23.7753 15.4265 23.6232 15.0006 23.5015H12.2017C11.5172 23.4862 11.3195 23.2277 11.3499 22.5279V20.0333C11.3499 19.5465 11.5324 19.3031 12.08 19.3336L19.1837 19.364C20.6744 19.3336 21.0091 18.8772 21.1612 17.5234V12.7166C21.1004 11.6366 20.7201 10.9978 19.4271 10.8456L12.1713 10.8304C11.4412 10.8608 11.3499 10.7087 11.3499 9.93296V7.49915C11.4412 6.9059 11.7454 6.769 12.3386 6.79942Z" fill="#D33120"/>
<path d="M12.2018 6.78424C12.2474 6.78424 12.293 6.78424 12.3387 6.78424H23.8993C33.239 7.30143 34.821 20.4288 25.4204 22.9235C25.1466 23.106 25.2227 23.3342 25.4204 23.5623L31.7635 29.7077C32.5241 30.4835 32.5697 31.8221 31.6723 32.4762L28.9646 34.7579C28.4779 35.0317 28.0215 35.1686 27.5956 35.1686C27.0328 35.1686 26.5308 34.9252 26.0593 34.3928L15.8981 24.0795C15.5635 23.7601 15.4418 23.608 15.0159 23.4863H12.217C11.5325 23.4711 11.3347 23.2125 11.3651 22.5128V20.0181C11.3651 19.5465 11.5325 19.3184 12.0344 19.3184C12.0497 19.3184 12.0801 19.3184 12.0953 19.3184L19.199 19.3488C20.6897 19.3184 21.0243 18.862 21.1764 17.5082L21.1612 12.7167C21.1004 11.6367 20.7201 10.9978 19.4271 10.8457L12.1713 10.8305C12.1257 10.8305 12.0801 10.8305 12.0496 10.8305C11.4412 10.8305 11.3499 10.6479 11.3651 9.93299V7.49917C11.426 6.95157 11.6998 6.78424 12.2018 6.78424ZM12.2018 5.68903C10.7415 5.68903 10.346 6.70818 10.2547 7.33185L10.2395 7.42312V7.51438V9.96341C10.2395 10.3893 10.2395 11.0282 10.7111 11.4998C11.1674 11.9561 11.7911 11.9561 12.0344 11.9561C12.0801 11.9561 12.1257 11.9561 12.1713 11.9561L19.3511 11.9713C19.9291 12.0474 20.0052 12.1538 20.0508 12.7775L20.066 17.4778C20.0052 18.0254 19.9291 18.1471 19.9139 18.1623C19.9139 18.1623 19.777 18.2536 19.1838 18.2688L12.1105 18.2536C12.0801 18.2536 12.0497 18.2536 12.0344 18.2536C10.9544 18.2536 10.2851 18.9381 10.2699 20.0485V22.5432C10.2547 22.9843 10.2851 23.608 10.7415 24.0947C11.2434 24.6271 11.9584 24.6423 12.2018 24.6423H14.8333C14.8637 24.6728 14.955 24.7488 15.0159 24.8097L15.1071 24.9009L25.2379 35.199C25.9072 35.9444 26.6982 36.3094 27.5804 36.3094C28.1889 36.3094 28.8125 36.1269 29.4818 35.7618L29.5883 35.701L29.6796 35.6249L32.3568 33.3584C32.9804 32.8869 33.3607 32.2024 33.4216 31.4114C33.4976 30.5291 33.1782 29.6164 32.5545 28.9624L32.5393 28.9471L32.5241 28.9319L27.0024 23.5775C31.4745 21.7978 33.1478 17.6299 32.7827 14.04C32.372 10.1003 29.497 5.99325 23.9601 5.68903H23.9297H23.8993H12.3691C12.3082 5.68903 12.2474 5.68903 12.2018 5.68903Z" fill="white"/>
</svg>
